<?xml version="1.0" encoding="UTF-8"?><svg id="Layer_2" xmlns="http://www.w3.org/2000/svg" viewBox="0 0 1181.01 1129.94"><defs><style>.cls-1{fill:#231f20;}.cls-2{fill:#fff;}</style></defs><g id="Layer_1-2"><rect class="cls-2" x="656.66" y=".25" width="524.35" height="1129.69"/><path class="cls-1" d="M1169.48,11.77v1106.64h-501.29V11.77h501.29M1181.01.25h-524.35v1129.69h524.35V.25h0Z"/><rect class="cls-1" x="48.5" width="524.35" height="549.28"/><rect class="cls-1" x="48.5" y="579.36" width="524.35" height="549.28"/><rect class="cls-2" x="329.76" y="194.78" width="278.26" height="159.96"/><path class="cls-1" d="M608.02,194.78v159.96h-278.26v-159.96h278.26M619.55,183.26h-301.31v183.01h301.31v-183.01h0Z"/><rect class="cls-1" x="537.06" y="473.52" width="763.55" height="183.01" transform="translate(1483.86 -353.8) rotate(90)"/><rect class="cls-2" x="11.53" y="775.32" width="287.62" height="159.96"/><path class="cls-1" d="M299.15,775.32v159.96H11.53v-159.96h287.62M310.67,763.79H0v183.01h310.67v-183.01h0Z"/></g></svg>