<?xml version="1.0" encoding="UTF-8"?><svg id="Layer_2" xmlns="http://www.w3.org/2000/svg" xmlns:xlink="http://www.w3.org/1999/xlink" viewBox="0 0 1418.76 2289.99"><defs><style>.cls-1{fill:#fff;}.cls-2{fill:none;}.cls-3{fill:#231f20;}.cls-4{fill:url(#New_Pattern);opacity:.02;}</style><pattern id="New_Pattern" x="0" y="0" width="1165.54" height="1393.92" patternTransform="translate(1947.8 -1944.41)" patternUnits="userSpaceOnUse" viewBox="0 0 1165.54 1393.92"><rect class="cls-2" x="0" y="0" width="1165.54" height="1393.92"/><polygon class="cls-3" points="1217.22 1524.41 1109.01 1453.5 1183.3 1340.15 1291.5 1411.06 1217.22 1524.41"/><polygon class="cls-3" points="925.83 1524.41 817.63 1453.5 891.91 1340.15 1000.12 1411.06 925.83 1524.41"/><polygon class="cls-3" points="634.45 1524.41 526.24 1453.5 600.53 1340.15 708.73 1411.06 634.45 1524.41"/><polygon class="cls-3" points="343.06 1524.41 234.86 1453.5 309.14 1340.15 417.35 1411.06 343.06 1524.41"/><polygon class="cls-3" points="51.68 1524.41 -56.53 1453.5 17.76 1340.15 125.96 1411.06 51.68 1524.41"/><polygon class="cls-1" points="1147.64 1447.69 1039.44 1376.78 1192.21 1143.66 1300.41 1214.57 1147.64 1447.69"/><path class="cls-3" d="M1297.79,1215.12l-105.03-68.83-150.7,229.95,105.03,68.83,150.7-229.95M1300.41,1214.57l-152.77,233.12-108.21-70.91,152.77-233.12,108.21,70.91h0Z"/><polygon class="cls-3" points="1100.67 1245.62 992.46 1174.71 1066.74 1061.36 1174.95 1132.27 1100.67 1245.62"/><polygon class="cls-3" points="1022.32 1365.18 914.11 1294.27 988.39 1180.92 1096.6 1251.83 1022.32 1365.18"/><polygon class="cls-1" points="1072.87 1173.42 1135.05 1214.17 1159.8 1176.41 1097.62 1135.66 1072.87 1173.42"/><path class="cls-3" d="M1157.18,1176.95l-59.01-38.67-22.67,34.59,59.01,38.67,22.67-34.59M1159.8,1176.41l-24.75,37.77-62.18-40.75,24.75-37.77,62.18,40.75h0Z"/><polygon class="cls-3" points="1202.68 1204.51 1099.42 1362.07 1137.19 1386.82 1240.45 1229.25 1202.68 1204.51"/><polygon class="cls-1" points="928.69 1250.19 992.8 1292.2 1017.55 1254.44 953.44 1212.42 928.69 1250.19"/><path class="cls-3" d="M1014.93,1254.98l-60.94-39.94-22.67,34.59,60.94,39.94,22.67-34.59M1017.55,1254.44l-24.75,37.77-64.11-42.01,24.75-37.77,64.11,42.01h0Z"/><polygon class="cls-1" points="856.26 1447.69 748.05 1376.78 900.82 1143.66 1009.03 1214.57 856.26 1447.69"/><path class="cls-3" d="M1006.4,1215.12l-105.03-68.83-150.7,229.95,105.03,68.83,150.7-229.95M1009.03,1214.57l-152.77,233.12-108.21-70.91,152.77-233.12,108.21,70.91h0Z"/><polygon class="cls-3" points="809.28 1245.62 701.08 1174.71 775.36 1061.36 883.56 1132.27 809.28 1245.62"/><polygon class="cls-3" points="730.93 1365.18 622.73 1294.27 697.01 1180.92 805.21 1251.83 730.93 1365.18"/><polygon class="cls-1" points="781.49 1173.42 843.67 1214.17 868.42 1176.41 806.24 1135.66 781.49 1173.42"/><path class="cls-3" d="M865.79,1176.95l-59.01-38.67-22.67,34.59,59.01,38.67,22.67-34.59M868.42,1176.41l-24.75,37.77-62.18-40.75,24.75-37.77,62.18,40.75h0Z"/><polygon class="cls-3" points="911.29 1204.51 808.04 1362.07 845.8 1386.82 949.06 1229.25 911.29 1204.51"/><polygon class="cls-1" points="637.31 1250.19 701.42 1292.2 726.17 1254.44 662.06 1212.42 637.31 1250.19"/><path class="cls-3" d="M723.54,1254.98l-60.94-39.94-22.67,34.59,60.94,39.94,22.67-34.59M726.17,1254.44l-24.75,37.77-64.11-42.01,24.75-37.77,64.11,42.01h0Z"/><polygon class="cls-1" points="564.87 1447.69 456.67 1376.78 609.44 1143.66 717.64 1214.57 564.87 1447.69"/><path class="cls-3" d="M715.02,1215.12l-105.03-68.83-150.7,229.95,105.03,68.83,150.7-229.95M717.64,1214.57l-152.77,233.12-108.21-70.91,152.77-233.12,108.21,70.91h0Z"/><polygon class="cls-3" points="517.9 1245.62 409.69 1174.71 483.97 1061.36 592.18 1132.27 517.9 1245.62"/><polygon class="cls-3" points="439.55 1365.18 331.34 1294.27 405.62 1180.92 513.83 1251.83 439.55 1365.18"/><polygon class="cls-1" points="490.1 1173.42 552.28 1214.17 577.03 1176.41 514.85 1135.66 490.1 1173.42"/><path class="cls-3" d="M574.41,1176.95l-59.01-38.67-22.67,34.59,59.01,38.67,22.67-34.59M577.03,1176.41l-24.75,37.77-62.18-40.75,24.75-37.77,62.18,40.75h0Z"/><polygon class="cls-3" points="619.91 1204.51 516.65 1362.07 554.42 1386.82 657.68 1229.25 619.91 1204.51"/><polygon class="cls-1" points="345.92 1250.19 410.03 1292.2 434.78 1254.44 370.67 1212.42 345.92 1250.19"/><path class="cls-3" d="M432.16,1254.98l-60.94-39.94-22.67,34.59,60.94,39.94,22.67-34.59M434.78,1254.44l-24.75,37.77-64.11-42.01,24.75-37.77,64.11,42.01h0Z"/><polygon class="cls-1" points="273.49 1447.69 165.28 1376.78 318.05 1143.66 426.26 1214.57 273.49 1447.69"/><path class="cls-3" d="M423.63,1215.12l-105.03-68.83-150.7,229.95,105.03,68.83,150.7-229.95M426.26,1214.57l-152.77,233.12-108.21-70.91,152.77-233.12,108.21,70.91h0Z"/><polygon class="cls-3" points="226.51 1245.62 118.31 1174.71 192.59 1061.36 300.79 1132.27 226.51 1245.62"/><polygon class="cls-3" points="148.16 1365.18 39.96 1294.27 114.24 1180.92 222.44 1251.83 148.16 1365.18"/><polygon class="cls-1" points="198.72 1173.42 260.9 1214.17 285.65 1176.41 223.47 1135.66 198.72 1173.42"/><path class="cls-3" d="M283.02,1176.95l-59.01-38.67-22.67,34.59,59.01,38.67,22.67-34.59M285.65,1176.41l-24.75,37.77-62.18-40.75,24.75-37.77,62.18,40.75h0Z"/><polygon class="cls-3" points="328.52 1204.51 225.27 1362.07 263.03 1386.82 366.29 1229.25 328.52 1204.51"/><polygon class="cls-1" points="54.54 1250.19 118.65 1292.2 143.4 1254.44 79.29 1212.42 54.54 1250.19"/><path class="cls-3" d="M140.77,1254.98l-60.94-39.94-22.67,34.59,60.94,39.94,22.67-34.59M143.4,1254.44l-24.75,37.77-64.11-42.01,24.75-37.77,64.11,42.01h0Z"/><polygon class="cls-1" points="-17.9 1447.69 -126.1 1376.78 26.67 1143.66 134.88 1214.57 -17.9 1447.69"/><path class="cls-3" d="M132.25,1215.12l-105.03-68.83-150.7,229.95,105.03,68.83,150.7-229.95M134.88,1214.57l-152.77,233.12-108.21-70.91,152.77-233.12,108.21,70.91h0Z"/><polygon class="cls-3" points="-64.87 1245.62 -173.08 1174.71 -98.8 1061.36 9.41 1132.27 -64.87 1245.62"/><polygon class="cls-3" points="37.14 1204.51 -66.12 1362.07 -28.35 1386.82 74.91 1229.25 37.14 1204.51"/><polygon class="cls-3" points="1197.15 1086.4 1088.94 1015.49 1163.22 902.14 1271.43 973.05 1197.15 1086.4"/><polygon class="cls-1" points="1103.52 971.4 1167.63 1013.42 1192.38 975.65 1128.27 933.64 1103.52 971.4"/><path class="cls-3" d="M1189.76,976.2l-60.94-39.94-22.67,34.59,60.94,39.94,22.67-34.59M1192.38,975.65l-24.75,37.77-64.11-42.01,24.75-37.77,64.11,42.01h0Z"/><polygon class="cls-1" points="1031.09 1168.91 922.88 1098 1075.66 864.87 1183.86 935.78 1031.09 1168.91"/><path class="cls-3" d="M1181.24,936.33l-105.03-68.83-150.7,229.95,105.03,68.83,150.7-229.95M1183.86,935.78l-152.77,233.12-108.21-70.91,152.77-233.12,108.21,70.91h0Z"/><polygon class="cls-3" points="984.11 966.84 875.91 895.93 950.19 782.58 1058.39 853.49 984.11 966.84"/><polygon class="cls-3" points="905.76 1086.4 797.56 1015.49 871.84 902.14 980.04 973.05 905.76 1086.4"/><polygon class="cls-1" points="956.32 894.64 1018.5 935.39 1043.25 897.62 981.07 856.87 956.32 894.64"/><path class="cls-3" d="M1040.62,898.17l-59.01-38.67-22.67,34.59,59.01,38.67,22.67-34.59M1043.25,897.62l-24.75,37.77-62.18-40.75,24.75-37.77,62.18,40.75h0Z"/><polygon class="cls-3" points="1086.13 925.72 982.87 1083.29 1020.63 1108.04 1123.89 950.47 1086.13 925.72"/><polygon class="cls-1" points="812.14 971.4 876.25 1013.42 901 975.65 836.89 933.64 812.14 971.4"/><path class="cls-3" d="M898.37,976.2l-60.94-39.94-22.67,34.59,60.94,39.94,22.67-34.59M901,975.65l-24.75,37.77-64.11-42.01,24.75-37.77,64.11,42.01h0Z"/><polygon class="cls-1" points="739.7 1168.91 631.5 1098 784.27 864.87 892.48 935.78 739.7 1168.91"/><path class="cls-3" d="M889.85,936.33l-105.03-68.83-150.7,229.95,105.03,68.83,150.7-229.95M892.48,935.78l-152.77,233.12-108.21-70.91,152.77-233.12,108.21,70.91h0Z"/><polygon class="cls-3" points="692.73 966.84 584.52 895.93 658.8 782.58 767.01 853.49 692.73 966.84"/><polygon class="cls-3" points="614.38 1086.4 506.17 1015.49 580.45 902.14 688.66 973.05 614.38 1086.4"/><polygon class="cls-1" points="664.93 894.64 727.11 935.39 751.86 897.62 689.68 856.87 664.93 894.64"/><path class="cls-3" d="M749.24,898.17l-59.01-38.67-22.67,34.59,59.01,38.67,22.67-34.59M751.86,897.62l-24.75,37.77-62.18-40.75,24.75-37.77,62.18,40.75h0Z"/><polygon class="cls-3" points="794.74 925.72 691.48 1083.29 729.25 1108.04 832.51 950.47 794.74 925.72"/><polygon class="cls-1" points="520.75 971.4 584.86 1013.42 609.61 975.65 545.5 933.64 520.75 971.4"/><path class="cls-3" d="M606.99,976.2l-60.94-39.94-22.67,34.59,60.94,39.94,22.67-34.59M609.61,975.65l-24.75,37.77-64.11-42.01,24.75-37.77,64.11,42.01h0Z"/><polygon class="cls-1" points="448.32 1168.91 340.11 1098 492.89 864.87 601.09 935.78 448.32 1168.91"/><path class="cls-3" d="M598.47,936.33l-105.03-68.83-150.7,229.95,105.03,68.83,150.7-229.95M601.09,935.78l-152.77,233.12-108.21-70.91,152.77-233.12,108.21,70.91h0Z"/><polygon class="cls-3" points="401.34 966.84 293.14 895.93 367.42 782.58 475.62 853.49 401.34 966.84"/><polygon class="cls-3" points="322.99 1086.4 214.79 1015.49 289.07 902.14 397.27 973.05 322.99 1086.4"/><polygon class="cls-1" points="373.55 894.64 435.73 935.39 460.48 897.62 398.3 856.87 373.55 894.64"/><path class="cls-3" d="M457.85,898.17l-59.01-38.67-22.67,34.59,59.01,38.67,22.67-34.59M460.48,897.62l-24.75,37.77-62.18-40.75,24.75-37.77,62.18,40.75h0Z"/><polygon class="cls-3" points="503.36 925.72 400.1 1083.29 437.86 1108.04 541.12 950.47 503.36 925.72"/><polygon class="cls-1" points="229.37 971.4 293.48 1013.42 318.23 975.65 254.12 933.64 229.37 971.4"/><path class="cls-3" d="M315.6,976.2l-60.94-39.94-22.67,34.59,60.94,39.94,22.67-34.59M318.23,975.65l-24.75,37.77-64.11-42.01,24.75-37.77,64.11,42.01h0Z"/><polygon class="cls-1" points="156.93 1168.91 48.73 1098 201.5 864.87 309.71 935.78 156.93 1168.91"/><path class="cls-3" d="M307.08,936.33l-105.03-68.83-150.7,229.95,105.03,68.83,150.7-229.95M309.71,935.78l-152.77,233.12-108.21-70.91,152.77-233.12,108.21,70.91h0Z"/><polygon class="cls-3" points="109.96 966.84 1.75 895.93 76.03 782.58 184.24 853.49 109.96 966.84"/><polygon class="cls-3" points="31.61 1086.4 -76.6 1015.49 -2.32 902.14 105.89 973.05 31.61 1086.4"/><polygon class="cls-1" points="82.16 894.64 144.34 935.39 169.09 897.62 106.91 856.87 82.16 894.64"/><path class="cls-3" d="M166.47,898.17l-59.01-38.67-22.67,34.59,59.01,38.67,22.67-34.59M169.09,897.62l-24.75,37.77-62.18-40.75,24.75-37.77,62.18,40.75h0Z"/><polygon class="cls-3" points="211.97 925.72 108.71 1083.29 146.48 1108.04 249.74 950.47 211.97 925.72"/><polygon class="cls-1" points="-62.02 971.4 2.1 1013.42 26.84 975.65 -37.27 933.64 -62.02 971.4"/><path class="cls-3" d="M24.22,976.2l-60.94-39.94-22.67,34.59L1.55,1010.79l22.67-34.59M26.84,975.65l-24.75,37.77-64.11-42.01,24.75-37.77,64.11,42.01h0Z"/><polygon class="cls-1" points="-134.45 1168.91 -242.66 1098 -89.88 864.87 18.32 935.78 -134.45 1168.91"/><path class="cls-3" d="M15.7,936.33l-105.03-68.83-150.7,229.95,105.03,68.83L15.7,936.33M18.32,935.78l-152.77,233.12-108.21-70.91,152.77-233.12,108.21,70.91h0Z"/><polygon class="cls-1" points="1205.92 890.13 1097.71 819.21 1250.49 586.09 1358.69 657 1205.92 890.13"/><path class="cls-3" d="M1356.07,657.55l-105.03-68.83-150.7,229.95,105.03,68.83,150.7-229.95M1358.69,657l-152.77,233.12-108.21-70.91,152.77-233.12,108.21,70.91h0Z"/><polygon class="cls-3" points="1158.94 688.06 1050.74 617.15 1125.02 503.8 1233.22 574.71 1158.94 688.06"/><polygon class="cls-3" points="1080.59 807.61 972.39 736.7 1046.67 623.35 1154.87 694.26 1080.59 807.61"/><polygon class="cls-1" points="1131.15 615.86 1193.33 656.6 1218.08 618.84 1155.9 578.09 1131.15 615.86"/><path class="cls-3" d="M1215.45,619.39l-59.01-38.67-22.67,34.59,59.01,38.67,22.67-34.59M1218.08,618.84l-24.75,37.77-62.18-40.75,24.75-37.77,62.18,40.75h0Z"/><polygon class="cls-3" points="1260.96 646.94 1157.7 804.5 1195.46 829.25 1298.72 671.69 1260.96 646.94"/><polygon class="cls-1" points="986.97 692.62 1051.08 734.63 1075.83 696.87 1011.72 654.85 986.97 692.62"/><path class="cls-3" d="M1073.2,697.41l-60.94-39.94-22.67,34.59,60.94,39.94,22.67-34.59M1075.83,696.87l-24.75,37.77-64.11-42.01,24.75-37.77,64.11,42.01h0Z"/><polygon class="cls-1" points="914.53 890.13 806.33 819.21 959.1 586.09 1067.31 657 914.53 890.13"/><path class="cls-3" d="M1064.68,657.55l-105.03-68.83-150.7,229.95,105.03,68.83,150.7-229.95M1067.31,657l-152.77,233.12-108.21-70.91,152.77-233.12,108.21,70.91h0Z"/><polygon class="cls-3" points="867.56 688.06 759.35 617.15 833.63 503.8 941.84 574.71 867.56 688.06"/><polygon class="cls-3" points="789.21 807.61 681 736.7 755.28 623.35 863.49 694.26 789.21 807.61"/><polygon class="cls-1" points="839.77 615.86 901.94 656.6 926.69 618.84 864.51 578.09 839.77 615.86"/><path class="cls-3" d="M924.07,619.39l-59.01-38.67-22.67,34.59,59.01,38.67,22.67-34.59M926.69,618.84l-24.75,37.77-62.18-40.75,24.75-37.77,62.18,40.75h0Z"/><polygon class="cls-3" points="969.57 646.94 866.31 804.5 904.08 829.25 1007.34 671.69 969.57 646.94"/><polygon class="cls-1" points="695.58 692.62 759.7 734.63 784.45 696.87 720.33 654.85 695.58 692.62"/><path class="cls-3" d="M781.82,697.41l-60.94-39.94-22.67,34.59,60.94,39.94,22.67-34.59M784.45,696.87l-24.75,37.77-64.11-42.01,24.75-37.77,64.11,42.01h0Z"/><polygon class="cls-1" points="623.15 890.13 514.94 819.21 667.72 586.09 775.92 657 623.15 890.13"/><path class="cls-3" d="M773.3,657.55l-105.03-68.83-150.7,229.95,105.03,68.83,150.7-229.95M775.92,657l-152.77,233.12-108.21-70.91,152.77-233.12,108.21,70.91h0Z"/><polygon class="cls-3" points="576.17 688.06 467.97 617.15 542.25 503.8 650.45 574.71 576.17 688.06"/><polygon class="cls-3" points="497.82 807.61 389.62 736.7 463.9 623.35 572.1 694.26 497.82 807.61"/><polygon class="cls-1" points="548.38 615.86 610.56 656.6 635.31 618.84 573.13 578.09 548.38 615.86"/><path class="cls-3" d="M632.68,619.39l-59.01-38.67-22.67,34.59,59.01,38.67,22.67-34.59M635.31,618.84l-24.75,37.77-62.18-40.75,24.75-37.77,62.18,40.75h0Z"/><polygon class="cls-3" points="678.19 646.94 574.93 804.5 612.69 829.25 715.95 671.69 678.19 646.94"/><polygon class="cls-1" points="404.2 692.62 468.31 734.63 493.06 696.87 428.95 654.85 404.2 692.62"/><path class="cls-3" d="M490.44,697.41l-60.94-39.94-22.67,34.59,60.94,39.94,22.67-34.59M493.06,696.87l-24.75,37.77-64.11-42.01,24.75-37.77,64.11,42.01h0Z"/><polygon class="cls-1" points="331.76 890.13 223.56 819.21 376.33 586.09 484.54 657 331.76 890.13"/><path class="cls-3" d="M481.91,657.55l-105.03-68.83-150.7,229.95,105.03,68.83,150.7-229.95M484.54,657l-152.77,233.12-108.21-70.91,152.77-233.12,108.21,70.91h0Z"/><polygon class="cls-3" points="284.79 688.06 176.58 617.15 250.86 503.8 359.07 574.71 284.79 688.06"/><polygon class="cls-3" points="206.44 807.61 98.23 736.7 172.51 623.35 280.72 694.26 206.44 807.61"/><polygon class="cls-1" points="257 615.86 319.17 656.6 343.92 618.84 281.75 578.09 257 615.86"/><path class="cls-3" d="M341.3,619.39l-59.01-38.67-22.67,34.59,59.01,38.67,22.67-34.59M343.92,618.84l-24.75,37.77-62.18-40.75,24.75-37.77,62.18,40.75h0Z"/><polygon class="cls-3" points="386.8 646.94 283.54 804.5 321.31 829.25 424.57 671.69 386.8 646.94"/><polygon class="cls-1" points="112.82 692.62 176.93 734.63 201.68 696.87 137.56 654.85 112.82 692.62"/><path class="cls-3" d="M199.05,697.41l-60.94-39.94-22.67,34.59,60.94,39.94,22.67-34.59M201.68,696.87l-24.75,37.77-64.11-42.01,24.75-37.77,64.11,42.01h0Z"/><polygon class="cls-1" points="40.38 890.13 -67.83 819.21 84.95 586.09 193.15 657 40.38 890.13"/><path class="cls-3" d="M190.53,657.55l-105.03-68.83-150.7,229.95,105.03,68.83,150.7-229.95M193.15,657l-152.77,233.12-108.21-70.91,152.77-233.12,108.21,70.91h0Z"/><polygon class="cls-3" points="-6.6 688.06 -114.8 617.15 -40.52 503.8 67.69 574.71 -6.6 688.06"/><polygon class="cls-1" points="-34.39 615.86 27.79 656.6 52.54 618.84 -9.64 578.09 -34.39 615.86"/><path class="cls-3" d="M49.91,619.39l-59.01-38.67-22.67,34.59,59.01,38.67,22.67-34.59M52.54,618.84l-24.75,37.77-62.18-40.75,24.75-37.77,62.18,40.75h0Z"/><polygon class="cls-3" points="95.42 646.94 -7.84 804.5 29.92 829.25 133.18 671.69 95.42 646.94"/><polygon class="cls-3" points="1255.42 528.83 1147.22 457.92 1221.5 344.57 1329.71 415.48 1255.42 528.83"/><polygon class="cls-1" points="1161.8 413.84 1225.91 455.85 1250.66 418.08 1186.55 376.07 1161.8 413.84"/><path class="cls-3" d="M1248.04,418.63l-60.94-39.94-22.67,34.59,60.94,39.94,22.67-34.59M1250.66,418.08l-24.75,37.77-64.11-42.01,24.75-37.77,64.11,42.01h0Z"/><polygon class="cls-1" points="1089.36 611.34 981.16 540.43 1133.93 307.31 1242.14 378.22 1089.36 611.34"/><path class="cls-3" d="M1239.51,378.76l-105.03-68.83-150.7,229.95,105.03,68.83,150.7-229.95M1242.14,378.22l-152.77,233.12-108.21-70.91,152.77-233.12,108.21,70.91h0Z"/><polygon class="cls-3" points="1042.39 409.27 934.18 338.36 1008.47 225.01 1116.67 295.92 1042.39 409.27"/><polygon class="cls-3" points="964.04 528.83 855.83 457.92 930.12 344.57 1038.32 415.48 964.04 528.83"/><polygon class="cls-1" points="1014.6 337.07 1076.78 377.82 1101.52 340.05 1039.35 299.31 1014.6 337.07"/><path class="cls-3" d="M1098.9,340.6l-59.01-38.67-22.67,34.59,59.01,38.67,22.67-34.59M1101.52,340.05l-24.75,37.77-62.18-40.75,24.75-37.77,62.18,40.75h0Z"/><polygon class="cls-3" points="1144.4 368.15 1041.14 525.72 1078.91 550.47 1182.17 392.9 1144.4 368.15"/><polygon class="cls-1" points="870.42 413.84 934.53 455.85 959.28 418.08 895.17 376.07 870.42 413.84"/><path class="cls-3" d="M956.65,418.63l-60.94-39.94-22.67,34.59,60.94,39.94,22.67-34.59M959.28,418.08l-24.75,37.77-64.11-42.01,24.75-37.77,64.11,42.01h0Z"/><polygon class="cls-1" points="797.98 611.34 689.77 540.43 842.55 307.31 950.75 378.22 797.98 611.34"/><path class="cls-3" d="M948.13,378.76l-105.03-68.83-150.7,229.95,105.03,68.83,150.7-229.95M950.75,378.22l-152.77,233.12-108.21-70.91,152.77-233.12,108.21,70.91h0Z"/><polygon class="cls-3" points="751 409.27 642.8 338.36 717.08 225.01 825.29 295.92 751 409.27"/><polygon class="cls-3" points="672.65 528.83 564.45 457.92 638.73 344.57 746.94 415.48 672.65 528.83"/><polygon class="cls-1" points="723.21 337.07 785.39 377.82 810.14 340.05 747.96 299.31 723.21 337.07"/><path class="cls-3" d="M807.51,340.6l-59.01-38.67-22.67,34.59,59.01,38.67,22.67-34.59M810.14,340.05l-24.75,37.77-62.18-40.75,24.75-37.77,62.18,40.75h0Z"/><polygon class="cls-3" points="853.02 368.15 749.76 525.72 787.53 550.47 890.78 392.9 853.02 368.15"/><polygon class="cls-1" points="579.03 413.84 643.14 455.85 667.89 418.08 603.78 376.07 579.03 413.84"/><path class="cls-3" d="M665.27,418.63l-60.94-39.94-22.67,34.59,60.94,39.94,22.67-34.59M667.89,418.08l-24.75,37.77-64.11-42.01,24.75-37.77,64.11,42.01h0Z"/><polygon class="cls-1" points="506.59 611.34 398.39 540.43 551.16 307.31 659.37 378.22 506.59 611.34"/><path class="cls-3" d="M656.74,378.76l-105.03-68.83-150.7,229.95,105.03,68.83,150.7-229.95M659.37,378.22l-152.77,233.12-108.21-70.91,152.77-233.12,108.21,70.91h0Z"/><polygon class="cls-3" points="459.62 409.27 351.41 338.36 425.7 225.01 533.9 295.92 459.62 409.27"/><polygon class="cls-3" points="381.27 528.83 273.06 457.92 347.35 344.57 455.55 415.48 381.27 528.83"/><polygon class="cls-1" points="431.83 337.07 494.01 377.82 518.76 340.05 456.58 299.31 431.83 337.07"/><path class="cls-3" d="M516.13,340.6l-59.01-38.67-22.67,34.59,59.01,38.67,22.67-34.59M518.76,340.05l-24.75,37.77-62.18-40.75,24.75-37.77,62.18,40.75h0Z"/><polygon class="cls-3" points="561.63 368.15 458.37 525.72 496.14 550.47 599.4 392.9 561.63 368.15"/><polygon class="cls-1" points="287.65 413.84 351.76 455.85 376.51 418.08 312.4 376.07 287.65 413.84"/><path class="cls-3" d="M373.88,418.63l-60.94-39.94-22.67,34.59,60.94,39.94,22.67-34.59M376.51,418.08l-24.75,37.77-64.11-42.01,24.75-37.77,64.11,42.01h0Z"/><polygon class="cls-1" points="215.21 611.34 107 540.43 259.78 307.31 367.98 378.22 215.21 611.34"/><path class="cls-3" d="M365.36,378.76l-105.03-68.83-150.7,229.95,105.03,68.83,150.7-229.95M367.98,378.22l-152.77,233.12-108.21-70.91,152.77-233.12,108.21,70.91h0Z"/><polygon class="cls-3" points="168.23 409.27 60.03 338.36 134.31 225.01 242.52 295.92 168.23 409.27"/><polygon class="cls-3" points="89.88 528.83 -18.32 457.92 55.96 344.57 164.17 415.48 89.88 528.83"/><polygon class="cls-1" points="140.44 337.07 202.62 377.82 227.37 340.05 165.19 299.31 140.44 337.07"/><path class="cls-3" d="M224.75,340.6l-59.01-38.67-22.67,34.59,59.01,38.67,22.67-34.59M227.37,340.05l-24.75,37.77-62.18-40.75,24.75-37.77,62.18,40.75h0Z"/><polygon class="cls-3" points="270.25 368.15 166.99 525.72 204.76 550.47 308.01 392.9 270.25 368.15"/><polygon class="cls-1" points="-3.74 413.84 60.37 455.85 85.12 418.08 21.01 376.07 -3.74 413.84"/><path class="cls-3" d="M82.5,418.63l-60.94-39.94L-1.11,413.29l60.94,39.94,22.67-34.59M85.12,418.08l-24.75,37.77L-3.74,413.84l24.75-37.77,64.11,42.01h0Z"/><polygon class="cls-1" points="-76.18 611.34 -184.38 540.43 -31.61 307.31 76.6 378.22 -76.18 611.34"/><path class="cls-3" d="M73.97,378.76l-105.03-68.83-150.7,229.95,105.03,68.83,150.7-229.95M76.6,378.22l-152.77,233.12-108.21-70.91L-31.61,307.31l108.21,70.91h0Z"/><polygon class="cls-3" points="-21.14 368.15 -124.4 525.72 -86.63 550.47 16.63 392.9 -21.14 368.15"/><polygon class="cls-1" points="1264.19 332.56 1155.99 261.65 1308.76 28.52 1416.97 99.43 1264.19 332.56"/><path class="cls-3" d="M1414.34,99.98l-105.03-68.83-150.7,229.95,105.03,68.83,150.7-229.95M1416.97,99.43l-152.77,233.12-108.21-70.91,152.77-233.12,108.21,70.91h0Z"/><polygon class="cls-3" points="1217.22 130.49 1109.01 59.58 1183.3 -53.77 1291.5 17.14 1217.22 130.49"/><polygon class="cls-3" points="1138.87 250.04 1030.66 179.13 1104.95 65.78 1213.15 136.7 1138.87 250.04"/><polygon class="cls-1" points="1045.25 135.05 1109.36 177.07 1134.11 139.3 1070 97.28 1045.25 135.05"/><path class="cls-3" d="M1131.48,139.85l-60.94-39.94-22.67,34.59,60.94,39.94,22.67-34.59M1134.11,139.3l-24.75,37.77-64.11-42.01,24.75-37.77,64.11,42.01h0Z"/><polygon class="cls-1" points="972.81 332.56 864.6 261.65 1017.38 28.52 1125.58 99.43 972.81 332.56"/><path class="cls-3" d="M1122.96,99.98l-105.03-68.83-150.7,229.95,105.03,68.83,150.7-229.95M1125.58,99.43l-152.77,233.12-108.21-70.91L1017.38,28.52l108.21,70.91h0Z"/><polygon class="cls-3" points="925.83 130.49 817.63 59.58 891.91 -53.77 1000.12 17.14 925.83 130.49"/><polygon class="cls-3" points="847.48 250.04 739.28 179.13 813.56 65.78 921.77 136.7 847.48 250.04"/><polygon class="cls-1" points="898.04 58.29 960.22 99.04 984.97 61.27 922.79 20.52 898.04 58.29"/><path class="cls-3" d="M982.35,61.82l-59.01-38.67-22.67,34.59,59.01,38.67,22.67-34.59M984.97,61.27l-24.75,37.77-62.18-40.75,24.75-37.77,62.18,40.75h0Z"/><polygon class="cls-3" points="1027.85 89.37 924.59 246.94 962.36 271.68 1065.61 114.12 1027.85 89.37"/><polygon class="cls-1" points="753.86 135.05 817.97 177.07 842.72 139.3 778.61 97.28 753.86 135.05"/><path class="cls-3" d="M840.1,139.85l-60.94-39.94-22.67,34.59,60.94,39.94,22.67-34.59M842.72,139.3l-24.75,37.77-64.11-42.01,24.75-37.77,64.11,42.01h0Z"/><polygon class="cls-1" points="681.42 332.56 573.22 261.65 725.99 28.52 834.2 99.43 681.42 332.56"/><path class="cls-3" d="M831.57,99.98l-105.03-68.83-150.7,229.95,105.03,68.83,150.7-229.95M834.2,99.43l-152.77,233.12-108.21-70.91L725.99,28.52l108.21,70.91h0Z"/><polygon class="cls-3" points="634.45 130.49 526.24 59.58 600.53 -53.77 708.73 17.14 634.45 130.49"/><polygon class="cls-3" points="556.1 250.04 447.89 179.13 522.18 65.78 630.38 136.7 556.1 250.04"/><polygon class="cls-1" points="606.66 58.29 668.84 99.04 693.59 61.27 631.41 20.52 606.66 58.29"/><path class="cls-3" d="M690.96,61.82l-59.01-38.67-22.67,34.59,59.01,38.67,22.67-34.59M693.59,61.27l-24.75,37.77-62.18-40.75,24.75-37.77,62.18,40.75h0Z"/><polygon class="cls-3" points="736.46 89.37 633.21 246.94 670.97 271.68 774.23 114.12 736.46 89.37"/><polygon class="cls-1" points="462.48 135.05 526.59 177.07 551.34 139.3 487.23 97.28 462.48 135.05"/><path class="cls-3" d="M548.71,139.85l-60.94-39.94-22.67,34.59,60.94,39.94,22.67-34.59M551.34,139.3l-24.75,37.77-64.11-42.01,24.75-37.77,64.11,42.01h0Z"/><polygon class="cls-1" points="390.04 332.56 281.83 261.65 434.61 28.52 542.81 99.43 390.04 332.56"/><path class="cls-3" d="M540.19,99.98l-105.03-68.83-150.7,229.95,105.03,68.83,150.7-229.95M542.81,99.43l-152.77,233.12-108.21-70.91L434.61,28.52l108.21,70.91h0Z"/><polygon class="cls-3" points="343.06 130.49 234.86 59.58 309.14 -53.77 417.35 17.14 343.06 130.49"/><polygon class="cls-3" points="264.71 250.04 156.51 179.13 230.79 65.78 339 136.7 264.71 250.04"/><polygon class="cls-1" points="315.27 58.29 377.45 99.04 402.2 61.27 340.02 20.52 315.27 58.29"/><path class="cls-3" d="M399.58,61.82l-59.01-38.67-22.67,34.59,59.01,38.67,22.67-34.59M402.2,61.27l-24.75,37.77-62.18-40.75,24.75-37.77,62.18,40.75h0Z"/><polygon class="cls-3" points="445.08 89.37 341.82 246.94 379.59 271.68 482.85 114.12 445.08 89.37"/><polygon class="cls-1" points="171.09 135.05 235.2 177.07 259.95 139.3 195.84 97.28 171.09 135.05"/><path class="cls-3" d="M257.33,139.85l-60.94-39.94-22.67,34.59,60.94,39.94,22.67-34.59M259.95,139.3l-24.75,37.77-64.11-42.01,24.75-37.77,64.11,42.01h0Z"/><polygon class="cls-1" points="98.66 332.56 -9.55 261.65 143.22 28.52 251.43 99.43 98.66 332.56"/><path class="cls-3" d="M248.8,99.98L143.77,31.15-6.92,261.1l105.03,68.83L248.8,99.98M251.43,99.43l-152.77,233.12L-9.55,261.65,143.22,28.52l108.21,70.91h0Z"/><polygon class="cls-3" points="51.68 130.49 -56.53 59.58 17.76 -53.77 125.96 17.14 51.68 130.49"/><polygon class="cls-3" points="-26.67 250.04 -134.88 179.13 -60.59 65.78 47.61 136.7 -26.67 250.04"/><polygon class="cls-1" points="23.89 58.29 86.07 99.04 110.82 61.27 48.64 20.52 23.89 58.29"/><path class="cls-3" d="M108.19,61.82L49.18,23.15l-22.67,34.59,59.01,38.67,22.67-34.59M110.82,61.27l-24.75,37.77L23.89,58.29l24.75-37.77,62.18,40.75h0Z"/><polygon class="cls-3" points="153.69 89.37 50.44 246.94 88.2 271.68 191.46 114.12 153.69 89.37"/><polygon class="cls-1" points="1147.64 53.77 1039.44 -17.14 1192.21 -250.26 1300.41 -179.35 1147.64 53.77"/><path class="cls-3" d="M1297.79-178.8l-105.03-68.83-150.7,229.95,105.03,68.83,150.7-229.95M1300.41-179.35l-152.77,233.12-108.21-70.91,152.77-233.12,108.21,70.91h0Z"/><polygon class="cls-1" points="856.26 53.77 748.05 -17.14 900.82 -250.26 1009.03 -179.35 856.26 53.77"/><path class="cls-3" d="M1006.4-178.8l-105.03-68.83L750.68-17.68l105.03,68.83,150.7-229.95M1009.03-179.35l-152.77,233.12-108.21-70.91,152.77-233.12,108.21,70.91h0Z"/><polygon class="cls-1" points="564.87 53.77 456.67 -17.14 609.44 -250.26 717.64 -179.35 564.87 53.77"/><path class="cls-3" d="M715.02-178.8l-105.03-68.83L459.29-17.68l105.03,68.83,150.7-229.95M717.64-179.35l-152.77,233.12-108.21-70.91,152.77-233.12,108.21,70.91h0Z"/><polygon class="cls-1" points="273.49 53.77 165.28 -17.14 318.05 -250.26 426.26 -179.35 273.49 53.77"/><path class="cls-3" d="M423.63-178.8l-105.03-68.83L167.91-17.68l105.03,68.83,150.7-229.95M426.26-179.35L273.49,53.77,165.28-17.14l152.77-233.12,108.21,70.91h0Z"/><polygon class="cls-1" points="-17.9 53.77 -126.1 -17.14 26.67 -250.26 134.88 -179.35 -17.9 53.77"/><path class="cls-3" d="M132.25-178.8L27.22-247.64-123.48-17.68-18.45,51.15l150.7-229.95M134.88-179.35L-17.9,53.77-126.1-17.14,26.67-250.26l108.21,70.91h0Z"/></pattern></defs><g id="Layer_1-2"><rect class="cls-3" x="-436.86" y="436.86" width="2289.99" height="1416.27" transform="translate(1853.13 436.86) rotate(90)"/><polygon id="Pattern" class="cls-4" points="2.12 2287.7 2.12 0 1418.76 0 1418.76 2287.7 2.12 2287.7"/></g></svg>