<?xml version="1.0" encoding="UTF-8"?><svg id="Layer_2" xmlns="http://www.w3.org/2000/svg" viewBox="0 0 264.3 78.49"><defs><style>.cls-1{fill:#fff;}.cls-2{fill:#231f20;}</style></defs><g id="Variations"><g id="White_Horizontals"><rect class="cls-1" x="45.64" y="0" width="36.43" height="78.49"/><path class="cls-2" d="M81.27.8v76.89h-34.83V.8h34.83M82.07,0h-36.43v78.49h36.43V0h0Z"/><rect class="cls-2" x="3.37" y="0" width="36.46" height="38.2"/><rect class="cls-2" x="3.37" y="40.29" width="36.46" height="38.2"/><rect class="cls-1" x="22.93" y="13.55" width="19.35" height="11.12"/><path class="cls-2" d="M42.28,13.55v11.12h-19.35v-11.12h19.35M43.08,12.74h-20.95v12.73h20.95v-12.73h0Z"/><rect class="cls-2" x="37.33" y="32.88" width="53.05" height="12.71" transform="translate(103.1 -24.62) rotate(90)"/><rect class="cls-1" x=".8" y="53.92" width="20" height="11.12"/><path class="cls-2" d="M20.8,53.92v11.12H.8v-11.12h20M21.6,53.11H0v12.73h21.6v-12.73h0Z"/><path class="cls-2" d="M108.55,45.33c0,5.64-4.89,8.13-10.11,8.13-7.34,0-10.86-3.87-11.72-8.72h3.32c.91,3.67,3.51,5.65,8.33,5.65,4.26,0,6.87-1.78,6.87-4.93s-2.57-3.67-7.93-4.86c-5.84-1.3-9.83-2.72-9.83-7.62,0-5.17,4.58-8.01,9.91-8.01,6.47,0,9.79,3.2,10.78,7.34h-3.32c-1.03-2.65-3.39-4.26-7.42-4.26s-6.67,1.86-6.67,4.93c0,2.29,1.74,3.16,7.3,4.42,6.59,1.46,10.5,2.72,10.5,7.93Z"/><path class="cls-2" d="M133.27,28.52h-8.92v24.51h-3.32v-24.51h-8.88v-3.12h21.12v3.12Z"/><path class="cls-2" d="M160.95,25.4v16.74c0,7.62-4.74,11.33-10.93,11.33s-10.93-3.71-10.93-11.33v-16.74h3.36v16.58c0,5.84,3.24,8.37,7.58,8.37s7.58-2.53,7.58-8.37v-16.58h3.36Z"/><path class="cls-2" d="M168.69,25.4h9.36c8.05,0,14.17,5.76,14.17,13.82s-6.16,13.82-14.17,13.82h-9.36v-27.63ZM178.08,49.91c6.16,0,10.82-4.42,10.86-10.7,0-6.28-4.7-10.7-10.86-10.7h-6.12v21.4h6.12Z"/><path class="cls-2" d="M198.93,25.4h3.28v27.63h-3.28v-27.63Z"/><path class="cls-2" d="M237.46,39.21c0,8.13-6.2,14.25-14.25,14.25s-14.25-6.12-14.25-14.25,6.24-14.25,14.29-14.25,14.21,6.12,14.21,14.25ZM212.27,39.21c0,6.36,4.78,11.13,10.93,11.13s10.93-4.74,10.93-11.13-4.78-11.13-10.93-11.13-10.93,4.78-10.93,11.13Z"/><path class="cls-2" d="M264.3,45.33c0,5.64-4.89,8.13-10.11,8.13-7.34,0-10.86-3.87-11.72-8.72h3.32c.91,3.67,3.51,5.65,8.33,5.65,4.26,0,6.87-1.78,6.87-4.93s-2.57-3.67-7.93-4.86c-5.84-1.3-9.83-2.72-9.83-7.62,0-5.17,4.58-8.01,9.91-8.01,6.47,0,9.79,3.2,10.78,7.34h-3.32c-1.03-2.65-3.39-4.26-7.42-4.26s-6.67,1.86-6.67,4.93c0,2.29,1.74,3.16,7.3,4.42,6.59,1.46,10.5,2.72,10.5,7.93Z"/></g></g></svg>