<?xml version="1.0" encoding="UTF-8"?><svg id="Layer_2" xmlns="http://www.w3.org/2000/svg" viewBox="0 0 132.11 155.11"><defs><style>.cls-1{fill:#fff;}.cls-2{fill:#231f20;}</style></defs><g id="Variations"><path class="cls-1" d="M21.38,149.33c0,4.01-3.48,5.78-7.19,5.78-5.22,0-7.72-2.75-8.34-6.2,0,0,0,0,0,0h2.36s0,0,0,0c.65,2.61,2.5,4.01,5.92,4.01,3.03,0,4.88-1.26,4.88-3.51s-1.82-2.61-5.64-3.45c-4.15-.93-6.99-1.94-6.99-5.42,0-3.68,3.26-5.7,7.05-5.7,4.6,0,6.96,2.27,7.66,5.22h-2.36s0,0,0,0c-.73-1.88-2.41-3.03-5.28-3.03s-4.74,1.32-4.74,3.51c0,1.63,1.24,2.25,5.19,3.14,4.69,1.04,7.47,1.94,7.47,5.64Z"/><path class="cls-1" d="M38.95,137.38h-6.34v17.43s0,0,0,0h-2.36v-17.43s0,0,0,0h-6.32s0,0,0,0v-2.22s0,0,0,0h15.02v2.22s0,0,0,0Z"/><path class="cls-1" d="M58.63,135.16s0,0,0,0v11.9c0,5.42-3.37,8.05-7.77,8.05s-7.77-2.64-7.77-8.05v-11.9s0,0,0,0h2.39s0,0,0,0v11.79c0,4.15,2.3,5.95,5.39,5.95s5.39-1.8,5.39-5.95v-11.79s0,0,0,0h2.39Z"/><path class="cls-1" d="M64.13,135.16h6.68c5.16,0,9.66,3.88,10.02,9.02.43,6.11-4.09,10.63-10.05,10.63h-6.65v-19.65s0,0,0,0ZM70.81,152.59c4.38,0,7.69-3.14,7.72-7.61,0-4.46-3.34-7.61-7.72-7.61h-4.35v15.21s0,0,0,0h4.35Z"/><path class="cls-1" d="M85.63,135.16h2.33s0,0,0,0v19.65s0,0,0,0h-2.33v-19.65s0,0,0,0Z"/><path class="cls-1" d="M113.02,144.98c0,5.78-4.41,10.13-10.13,10.13s-10.13-4.35-10.13-10.13,4.43-10.13,10.16-10.13,10.1,4.35,10.1,10.13ZM95.12,144.98c0,4.52,3.4,7.92,7.77,7.92s7.77-3.37,7.77-7.92-3.4-7.92-7.77-7.92-7.77,3.4-7.77,7.92Z"/><path class="cls-1" d="M132.11,149.33c0,4.01-3.48,5.78-7.19,5.78-5.22,0-7.72-2.75-8.34-6.2,0,0,0,0,0,0h2.36s0,0,0,0c.65,2.61,2.5,4.01,5.92,4.01,3.03,0,4.88-1.26,4.88-3.51s-1.82-2.61-5.64-3.45c-4.15-.93-6.99-1.94-6.99-5.42,0-3.68,3.26-5.7,7.05-5.7,4.6,0,6.96,2.27,7.66,5.22h-2.36s0,0,0,0c-.73-1.88-2.41-3.03-5.28-3.03s-4.74,1.32-4.74,3.51c0,1.63,1.24,2.25,5.19,3.14,4.69,1.04,7.47,1.94,7.47,5.64Z"/><rect class="cls-2" x="73.46" y=".03" width="58.66" height="126.37"/><path class="cls-1" d="M130.82,1.32v123.79h-56.08V1.32h56.08M132.11.03h-58.66v126.37h58.66V.03h0Z"/><rect class="cls-1" x="5.43" width="58.66" height="61.44"/><rect class="cls-1" x="5.43" y="64.81" width="58.66" height="61.44"/><rect class="cls-2" x="36.89" y="21.79" width="31.13" height="17.89"/><path class="cls-1" d="M68.02,21.79v17.89h-31.13v-17.89h31.13M69.3,20.5h-33.71v20.47h33.71v-20.47h0Z"/><rect class="cls-1" x="60.08" y="52.97" width="85.41" height="20.47" transform="translate(165.99 -39.58) rotate(90)"/><rect class="cls-2" x="1.29" y="86.73" width="32.17" height="17.89"/><path class="cls-1" d="M33.46,86.73v17.89H1.29v-17.89h32.17M34.75,85.44H0v20.47h34.75v-20.47h0Z"/></g></svg>